<svg width="1050" height="175" viewBox="0 0 1050 175" fill="none" xmlns="http://www.w3.org/2000/svg">
<g clip-path="url(#clip0_3007_11363)">
<g clip-path="url(#clip1_3007_11363)">
<g clip-path="url(#clip2_3007_11363)">
<path d="M46.2553 102.425L52.4193 102.553C50.2949 101.818 48.2349 100.924 46.2553 99.8709V102.425ZM55.5414 101.579V102.425L52.4193 102.553C58.2935 104.548 63.6688 104.819 67.66 103.702C64.4574 103.734 60.2891 103.287 55.5414 101.579ZM121.349 83.1901C123.908 83.1901 126 81.131 126 78.577C126 76.023 123.924 74.6662 121.349 74.6662C118.79 74.6662 116.698 76.039 116.698 78.577C116.698 81.115 118.774 83.1901 121.349 83.1901ZM116.682 102.425H126V84.7864H116.682V102.425ZM104.82 102.425H114.139V71.2502L104.82 75.608V102.425ZM99.8314 83.3657C96.9024 80.4606 91.7202 80.6362 91.7202 80.6362C91.7202 80.6362 86.5219 80.4606 83.6089 83.3657C80.6799 86.2709 80.9052 88.777 80.9052 91.762C80.9052 94.747 80.6799 97.2371 83.6089 100.142C86.538 103.047 91.7202 102.872 91.7202 102.872C91.7202 102.872 96.9185 103.047 99.8314 100.142C102.76 97.2371 102.535 94.747 102.535 91.762C102.519 88.761 102.744 86.2549 99.8314 83.3657ZM93.4261 94.8427C93.4261 95.4174 93.1364 96.838 91.7041 96.838C90.2718 96.838 89.9821 95.4174 89.9821 94.8427V88.3939C89.9821 87.0052 91.1569 86.654 91.7041 86.654C92.2513 86.654 93.4261 86.9892 93.4261 88.3939V94.8427ZM76.3346 83.3657C73.4055 80.4606 68.2233 80.6362 68.2233 80.6362C68.2233 80.6362 63.0411 80.4606 60.1121 83.3657C59.8063 83.669 59.5166 83.9883 59.2591 84.3235C53.1113 79.5986 47.5911 76.9009 42.8274 74.5704V71.2662L39.2063 72.9582C30.4513 69.4305 24.8828 70.0531 23.5471 72.9742C23.5471 72.9742 19.5397 78.2099 33.493 90.6606V102.425H42.8113V97.8596C41.7652 97.1892 40.7191 96.4709 39.6891 95.6887C37.3072 93.9009 35.2794 92.2409 33.5091 90.6765V85.7282C35.6174 88.0747 38.4177 90.7404 42.1032 93.7573L42.8274 94.3319V89.5751C42.8274 88.4737 43.101 86.67 44.5655 86.67C46.03 86.67 46.2714 87.7714 46.2714 89.0643V96.838C49.1683 98.7855 52.2744 100.366 55.5575 101.563V86.5742C55.5575 83.5892 53.401 80.6042 49.0235 80.6042C46.4807 80.5883 44.1149 81.9132 42.8274 84.1V75.4324C49.5707 78.7685 56.33 82.8549 58.905 84.7385C57.2635 87.069 57.4083 89.2239 57.4083 91.7141C57.4083 94.6991 57.183 97.1892 60.1121 100.094C63.0411 103 68.2233 102.824 68.2233 102.824C68.2233 102.824 73.4216 103 76.3346 100.094C79.2636 97.1892 79.0222 94.6991 79.0222 91.7141C79.0222 88.761 79.2636 86.2549 76.3346 83.3657ZM33.493 75.608V85.7122C25.6553 77.0127 27.2325 73.5808 27.828 73.0859C30.0007 71.2662 33.8632 71.8089 38.1924 73.4211L33.493 75.608ZM69.9453 94.8427C69.9453 95.4174 69.6557 96.838 68.2233 96.838C66.791 96.838 66.5013 95.4174 66.5013 94.8427V88.3939C66.5013 87.0052 67.6761 86.654 68.2233 86.654C68.7705 86.654 69.9453 86.9892 69.9453 88.3939V94.8427Z" fill="#737373"/>
</g>
</g>
<g clip-path="url(#clip3_3007_11363)">
<path d="M212.5 58.9952H225.112V93.0099C225.112 98.4046 227.544 101.615 229.521 102.952C227.463 104.761 221.221 106.358 216.52 102.496C213.764 100.214 212.5 96.4162 212.5 92.8795V58.9952ZM291.269 87.2729V83.6872H295.127V71.1701H290.896C289.259 63.624 282.596 58.0173 274.637 58.0173C265.461 58.0173 257.988 65.5146 257.988 74.7557V103.962C260.582 104.337 263.727 103.913 266.369 101.681C269.141 99.3988 270.389 95.6176 270.389 92.0646V90.9726H276.679V78.4555H270.389V74.6579C270.389 69.0187 278.851 69.0187 278.851 74.6579V87.224C278.851 96.4488 286.308 103.962 295.5 103.962V91.4941C293.149 91.4941 291.269 89.5872 291.269 87.2729ZM243.56 71.1375V89.5546C243.56 92.0646 239.702 92.0646 239.702 89.5546V71.1375H227.252V92.7654C227.252 96.6444 228.549 101.567 234.547 103.18C240.545 104.777 243.982 101.452 243.982 101.452C243.641 103.636 241.631 105.25 238.324 105.576C235.811 105.837 232.618 104.989 231.029 104.305V115.762C235.098 116.985 239.378 117.36 243.609 116.528C251.244 115.045 256.059 108.64 256.059 100.1V71.056H243.56V71.1375Z" fill="#737373"/>
</g>
<g clip-path="url(#clip4_3007_11363)">
<path d="M484 50.1458C471.122 58.8283 469.752 65.1296 468.636 67.0572C467.568 69.0334 466.772 76.825 464.923 80.5993C463.058 84.4222 456.285 87.4352 454.388 88.6987C452.523 89.9622 449.878 94.8704 447.71 99.0982C430.482 98.3855 421.031 105.383 406.4 114.26C411.086 112.689 413.301 111.555 413.301 111.555C428.314 105.724 435.502 100.491 458.102 103.585C458.277 103.585 458.404 103.682 458.548 103.715C459.169 104.071 459.392 104.833 459.042 105.464L450.452 120.983C450.053 121.744 449.208 122.149 448.364 121.971C428.155 118.116 412.202 124.773 397.539 124.984C385.841 125.162 382 119.557 382 119.298C382 119.12 382.096 119.023 382.271 119.023C382.271 119.023 388.375 119.023 398.702 116.544C410.432 93.8175 420.887 85.8639 432.267 85.8639C432.267 85.8639 443.694 85.8639 446.706 95.8909C450.34 89.46 451.217 87.9211 451.217 87.9211C452.061 86.3985 456.795 75.4157 464.987 65.0162C473.194 54.649 479.394 52.0734 484 50.1458Z" fill="#737373"/>
</g>
<g clip-path="url(#clip5_3007_11363)">
<g clip-path="url(#clip6_3007_11363)">
<path d="M589.555 69.7932L582.587 71.2568L582.555 93.9114C582.555 98.0955 585.741 100.8 589.974 100.8C592.324 100.8 594.046 100.37 594.995 99.8614V94.4841C594.078 94.85 589.572 96.1546 589.572 91.9864V81.9318H594.995V75.9182H589.572L589.555 69.7932ZM603.895 78.0023L603.46 75.9182H597.28V100.291H604.41V83.8886C606.1 81.6932 608.948 82.1227 609.866 82.4091V75.9182C608.9 75.5841 605.569 74.9636 603.895 78.0023ZM618.75 66.5L611.572 68.0114V73.7705L618.75 72.2591V66.5ZM570.227 83.0932C570.227 81.9955 571.16 81.5659 572.657 81.55C574.83 81.55 577.598 82.2023 579.77 83.3636V76.7136C577.405 75.7909 575.039 75.425 572.673 75.425C566.879 75.425 563.017 78.4159 563.017 83.4114C563.017 91.2386 573.88 89.9659 573.88 93.3386C573.88 94.6432 572.737 95.0727 571.144 95.0727C568.778 95.0727 565.721 94.1023 563.323 92.8136V99.1773C565.978 100.307 568.666 100.784 571.128 100.784C577.067 100.784 581.155 98.2705 581.155 93.1796C581.155 84.7636 570.227 86.275 570.227 83.0932ZM666.001 88.3909C666.001 81.1523 662.46 75.4409 655.669 75.4409C648.877 75.4409 644.741 81.1523 644.741 88.3432C644.741 96.8545 649.617 100.784 656.57 100.784C659.982 100.784 662.541 100.02 664.488 98.9545V93.6409C662.541 94.6114 660.304 95.2 657.471 95.2C654.687 95.2 652.241 94.2295 651.919 90.9205H665.904C665.936 90.5545 666.001 89.075 666.001 88.3909ZM651.854 85.7182C651.854 82.5364 653.834 81.2 655.62 81.2C657.375 81.2 659.241 82.5364 659.241 85.7182H651.854ZM633.685 75.4409C630.884 75.4409 629.082 76.7455 628.084 77.6523L627.714 75.9023H621.421V108.484L628.567 106.989L628.583 99.0023C629.613 99.75 631.142 100.784 633.636 100.784C638.754 100.784 643.421 97.0932 643.421 88.1205C643.437 79.9114 638.706 75.4409 633.685 75.4409ZM631.979 94.9296C630.305 94.9296 629.307 94.325 628.615 93.5932L628.567 83.0932C629.307 82.2818 630.337 81.6932 631.979 81.6932C634.586 81.6932 636.388 84.5886 636.388 88.2795C636.404 92.0818 634.634 94.9296 631.979 94.9296ZM611.588 100.291H618.766V75.9182H611.588V100.291Z" fill="#737373"/>
</g>
</g>
<g clip-path="url(#clip7_3007_11363)">
<g clip-path="url(#clip8_3007_11363)">
<path d="M772.887 78.9887C772.771 82.6268 774.604 84.2378 774.65 85.261C774.628 85.4692 774.557 85.6693 774.441 85.8445C774.325 86.0197 774.169 86.165 773.986 86.2681L771.912 87.7072C771.644 87.8938 771.327 88.0007 771 88.0156C770.93 88.0124 769.673 88.3096 767.682 83.9021C766.468 85.4055 764.922 86.6133 763.164 87.4332C761.406 88.2531 759.482 88.6633 757.54 88.6324C754.903 88.7754 747.756 87.1483 748.123 79.6039C747.866 73.4553 753.641 69.6357 759.613 69.9585C760.764 69.9618 763.113 70.018 767.226 70.9656V68.4567C767.661 64.2067 764.844 60.9091 759.967 61.4038C759.578 61.4054 756.824 61.3235 752.541 63.0277C751.349 63.5706 751.196 63.4807 750.799 63.4807C749.599 63.4807 750.093 60.0305 750.323 59.5936C751.167 58.5656 756.132 56.6462 761.005 56.6735C764.263 56.3878 767.504 57.3848 770.026 59.4491C771.052 60.5864 771.834 61.918 772.326 63.3635C772.818 64.809 773.01 66.3383 772.889 67.8592L772.887 78.9887ZM758.888 84.1912C764.141 84.1157 766.365 80.9836 766.872 79.2971C767.271 77.6828 767.205 76.6613 767.205 74.8961C765.638 74.5234 763.383 74.117 760.796 74.1138C758.342 73.9307 753.859 75.0181 754.034 79.2955C753.834 81.9923 755.836 84.339 758.888 84.1912ZM786.576 87.8936C785.302 88.0092 784.71 87.1129 784.522 86.2279L776.454 59.7815C776.297 59.335 776.194 58.874 776.143 58.4034C776.114 58.2094 776.163 58.0116 776.28 57.8535C776.397 57.6953 776.573 57.5898 776.769 57.5601C776.807 57.5537 776.424 57.5601 780.373 57.5601C781.795 57.4188 782.259 58.5287 782.406 59.2258L788.192 81.8462L793.564 59.2258C793.65 58.7086 794.04 57.4477 795.638 57.581H798.417C798.769 57.5521 800.217 57.5007 800.472 59.2467L805.885 82.1562L811.858 59.2467C811.936 58.8965 812.299 57.4204 813.912 57.581H817.107C817.244 57.5601 818.103 57.4509 817.957 58.9592C817.887 59.2563 818.51 57.2469 809.412 86.2488C809.226 87.1338 808.631 88.0301 807.358 87.9144H804.33C802.558 88.0992 802.304 86.3628 802.276 86.1878L796.904 64.1617L791.594 86.1653C791.568 86.3404 791.314 88.0767 789.54 87.892H786.576V87.8936ZM830.878 88.7979C829.925 88.7995 825.383 88.7497 821.586 86.8238C821.208 86.665 820.885 86.3984 820.66 86.0579C820.435 85.7173 820.317 85.3181 820.321 84.9108V83.1841C820.321 81.8269 821.325 82.0758 821.751 82.2381C823.377 82.8902 824.421 83.3849 826.418 83.78C832.355 84.9895 834.966 83.4106 835.606 83.0605C837.737 81.806 837.905 78.9357 836.457 77.4467C834.759 76.0349 833.949 75.9819 827.85 74.0737C827.098 73.8665 820.771 71.8876 820.756 65.6635C820.658 61.1276 824.814 56.6398 832.018 56.6767C834.071 56.6751 839.54 57.3401 841.02 59.1856C841.239 59.5213 841.347 59.9165 841.331 60.3164V61.9403C841.331 62.6535 841.069 63.01 840.542 63.01C839.293 62.8719 837.077 61.2159 832.579 61.2834C831.463 61.2255 826.117 61.4295 826.357 65.2941C826.287 68.3395 830.667 69.4815 831.168 69.6132C837.074 71.3752 839.049 71.6676 841.393 74.3644C844.169 77.9382 842.673 82.1224 842.097 83.2693C839.007 89.291 831.014 88.8011 830.878 88.7979ZM837.39 105.641C826.045 113.948 809.577 118.37 795.516 118.37C776.544 118.494 758.21 111.577 744.12 98.9781C743.063 98.032 743.996 96.7358 745.282 97.457C760.912 106.322 778.608 110.98 796.614 110.968C810.061 110.897 823.361 108.192 835.751 103.01C837.659 102.207 839.277 104.263 837.39 105.641ZM842.119 100.294C840.667 98.4432 832.516 99.4294 828.866 99.8615C827.766 99.9852 827.58 99.0391 828.576 98.3404C835.067 93.8157 845.728 95.1119 846.952 96.633C848.175 98.1541 846.62 108.745 840.544 113.805C839.611 114.587 838.718 114.175 839.133 113.147C840.5 109.733 843.57 102.146 842.119 100.294Z" fill="#737373"/>
</g>
</g>
<g clip-path="url(#clip9_3007_11363)">
<g clip-path="url(#clip10_3007_11363)">
<path d="M1005.93 79.1614C1003.53 79.1614 1001.42 80.1556 999.875 81.7111C994.175 77.7503 986.495 75.2006 977.985 74.928L982.407 54.9156L996.49 58.0906C996.49 61.5543 999.3 64.3766 1002.75 64.3766C1006.26 64.3766 1009.09 61.4741 1009.09 58.0104C1009.09 54.5467 1006.28 51.6443 1002.75 51.6443C1000.29 51.6443 998.166 53.1356 997.113 55.1721L981.561 51.7084C980.779 51.5 980.013 52.0612 979.805 52.847L974.951 74.912C966.505 75.2648 958.905 77.8144 953.189 81.7752C951.64 80.1556 949.453 79.1614 947.058 79.1614C938.181 79.1614 935.275 91.124 943.402 95.2131C943.114 96.4799 942.986 97.8269 942.986 99.1739C942.986 112.612 958.059 123.5 976.564 123.5C995.149 123.5 1010.22 112.612 1010.22 99.1739C1010.22 97.8269 1010.08 96.4158 1009.73 95.149C1017.69 91.0438 1014.76 79.1614 1005.93 79.1614ZM956.286 96.063C956.286 92.5351 959.097 89.6968 962.625 89.6968C966.074 89.6968 968.884 92.5191 968.884 96.063C968.884 99.5267 966.074 102.349 962.625 102.349C959.113 102.365 956.286 99.5267 956.286 96.063ZM990.502 111.056C984.691 116.893 968.293 116.893 962.481 111.056C961.843 110.495 961.843 109.501 962.481 108.859C963.04 108.298 964.03 108.298 964.589 108.859C969.028 113.43 983.749 113.51 988.379 108.859C988.938 108.298 989.928 108.298 990.486 108.859C991.141 109.501 991.141 110.495 990.502 111.056ZM990.375 102.365C986.926 102.365 984.116 99.5427 984.116 96.079C984.116 92.5512 986.926 89.7129 990.375 89.7129C993.887 89.7129 996.713 92.5351 996.713 96.079C996.697 99.5267 993.887 102.365 990.375 102.365Z" fill="#737373"/>
</g>
</g>
</g>
<defs>
<clipPath id="clip0_3007_11363">
<rect width="1050" height="175" fill="white"/>
</clipPath>
<clipPath id="clip1_3007_11363">
<rect width="153" height="34" fill="white" transform="translate(-2 70.5)"/>
</clipPath>
<clipPath id="clip2_3007_11363">
<rect width="103" height="34" fill="white" transform="translate(23 70.5)"/>
</clipPath>
<clipPath id="clip3_3007_11363">
<rect width="83" height="59" fill="white" transform="translate(212.5 58)"/>
</clipPath>
<clipPath id="clip4_3007_11363">
<rect width="102" height="75" fill="white" transform="translate(382 50)"/>
</clipPath>
<clipPath id="clip5_3007_11363">
<rect width="151" height="42" fill="white" transform="translate(539 66.5)"/>
</clipPath>
<clipPath id="clip6_3007_11363">
<rect width="103" height="42" fill="white" transform="translate(563 66.5)"/>
</clipPath>
<clipPath id="clip7_3007_11363">
<rect width="151" height="62" fill="white" transform="translate(720 56.5)"/>
</clipPath>
<clipPath id="clip8_3007_11363">
<rect width="104" height="62" fill="white" transform="translate(743.5 56.5)"/>
</clipPath>
<clipPath id="clip9_3007_11363">
<rect width="151" height="72" fill="white" transform="translate(901 51.5)"/>
</clipPath>
<clipPath id="clip10_3007_11363">
<rect width="76" height="72" fill="white" transform="translate(938.5 51.5)"/>
</clipPath>
</defs>
</svg>
